<?xml version="1.0" encoding="UTF-8"?>
<svg width="22px" height="14px" viewBox="0 0 22 14" version="1.1" xmlns="http://www.w3.org/2000/svg" xmlns:xlink="http://www.w3.org/1999/xlink">
    <!-- Generator: Sketch 53.1 (72631) - https://sketchapp.com -->
    <title>email-filled-closed-envelope</title>
    <desc>Created with Sketch.</desc>
    <g id="Page-1" stroke="none" stroke-width="1" fill="none" fill-rule="evenodd">
        <g id="contacts" transform="translate(-1250.000000, -638.000000)" fill="#000000" fill-rule="nonzero">
            <g id="contact-info" transform="translate(1227.000000, 613.000000)">
                <g id="email-icon" transform="translate(2.000000, 0.000000)">
                    <g id="email-filled-closed-envelope" transform="translate(21.000000, 25.000000)">
                        <path d="M11.0276083,8.39613438 L11.0323172,8.39613438 C11.1982164,8.39613438 11.3621742,8.35033132 11.4948211,8.26693506 L11.5308043,8.24494034 C11.5386415,8.24008299 11.5468369,8.23567003 11.555069,8.23043634 L11.9741473,7.9005116 L21.9769225,0.045802941 C21.9562163,0.0186085148 21.9209522,0 21.8833871,0 L0.116218957,0 C0.0892222246,0 0.0641666674,0.00930425742 0.0442156866,0.0249367774 L10.5094942,8.23300214 C10.6413861,8.3369223 10.8295727,8.39613438 11.0276083,8.39613438 Z M0,1.11298764 L0,12.7559663 L7.49689531,6.9931075 L0,1.11298764 Z M14.5109415,7.03220561 L22,12.7589418 L22,1.15170968 L14.5109415,7.03220561 Z M12.1298727,8.90140367 C11.8313264,9.13448899 11.4408265,9.26296978 11.0307358,9.26296978 C10.6190977,9.26296978 10.2289571,9.13524155 9.93120221,8.90325086 L8.21415973,7.55570698 L0,13.8689536 L0,13.889033 C0,13.9489975 0.0539934649,14 0.1177647,14 L21.8837813,14 C21.9463657,14 21.9999638,13.9489975 21.9999638,13.8886569 L21.9999638,13.8700484 L13.7928857,7.59521587 L12.1298727,8.90140367 Z" id="Shape"></path>
                    </g>
                </g>
            </g>
        </g>
    </g>
</svg>