<?xml version="1.0" encoding="UTF-8"?>
<svg width="18px" height="18px" viewBox="0 0 18 18" version="1.1" xmlns="http://www.w3.org/2000/svg" xmlns:xlink="http://www.w3.org/1999/xlink">
    <!-- Generator: Sketch 53.1 (72631) - https://sketchapp.com -->
    <title>phone</title>
    <desc>Created with Sketch.</desc>
    <g id="Page-1" stroke="none" stroke-width="1" fill="none" fill-rule="evenodd">
        <g id="MAIN" transform="translate(-1282.000000, -38.000000)" fill="#FFE517" fill-rule="nonzero">
            <g id="phone" transform="translate(1282.000000, 36.000000)">
                <g transform="translate(0.000000, 2.000000)" id="56ef3745-66df-4599-9be7-ac4ed4d386c2">
                    <path d="M12.2070186,10.7120379 L10.3632263,12.5567218 L5.44064748,7.63176441 L7.28444034,5.78708053 C7.61106473,5.46066105 7.79459113,5.01772374 7.79459113,4.55584091 C7.79459113,4.09395754 7.61106473,3.65102023 7.28444034,3.32460129 L4.22304878,0.253028585 C3.88382792,-0.0843428588 3.33597359,-0.0843428588 2.99675274,0.253028585 L0.509372212,2.72420892 C0.101832261,3.13202593 -0.0773128141,3.71534362 0.0310298055,4.28174865 C0.685498729,7.66463542 2.36109173,10.7653731 4.83184826,13.1658161 C7.23346066,15.6393192 10.3359579,17.3158425 13.7203199,17.968955 C14.2864516,18.0773506 14.8694876,17.898119 15.2771072,17.4903814 L17.7470934,15.019201 C18.0843029,14.6798168 18.0843029,14.1316967 17.7470934,13.7923125 L14.6596112,10.7120379 C13.981169,10.037295 12.8854609,10.037295 12.2070186,10.7120379 Z"></path>
                </g>
            </g>
        </g>
    </g>
</svg>