<?xml version="1.0" encoding="UTF-8"?>
<svg width="22px" height="22px" viewBox="0 0 22 22" version="1.1" xmlns="http://www.w3.org/2000/svg" xmlns:xlink="http://www.w3.org/1999/xlink">
    <!-- Generator: Sketch 53.1 (72631) - https://sketchapp.com -->
    <title>phone</title>
    <desc>Created with Sketch.</desc>
    <g id="Page-1" stroke="none" stroke-width="1" fill="none" fill-rule="evenodd">
        <g id="contacts" transform="translate(-1250.000000, -740.000000)" fill="#000000" fill-rule="nonzero">
            <g id="contact-info" transform="translate(1227.000000, 613.000000)">
                <g id="phone-icon" transform="translate(2.000000, 106.000000)">
                    <g id="phone" transform="translate(21.000000, 21.000000)">
                        <path d="M14.9196894,13.0924908 L12.6661655,15.3471044 L6.64968026,9.32771206 L8.90320486,7.07309842 C9.30241245,6.67414129 9.52672249,6.13277346 9.52672249,5.56825 C9.52672249,5.00372589 9.30241245,4.46235806 8.90320486,4.06340158 L5.16150406,0.309257159 C4.7469008,-0.103085716 4.07730106,-0.103085716 3.66269779,0.309257159 L0.622566037,3.32958868 C0.124461653,3.82803169 -0.0944934394,4.54097554 0.0379253179,5.23324835 C0.83783178,9.36788774 2.88577878,13.1576782 5.90559232,16.091553 C8.84089637,19.1147234 12.6328374,21.1638075 16.7692798,21.9620562 C17.4612186,22.0945396 18.1738182,21.8754787 18.67202,21.3771328 L21.690892,18.3568013 C22.1030369,17.9419984 22.1030369,17.2720737 21.690892,16.8572708 L17.9173026,13.0924908 C17.0880954,12.267805 15.7488966,12.267805 14.9196894,13.0924908 Z" id="56ef3745-66df-4599-9be7-ac4ed4d386c2"></path>
                    </g>
                </g>
            </g>
        </g>
    </g>
</svg>