<?xml version="1.0" encoding="UTF-8"?>
<svg width="24px" height="27px" viewBox="0 0 24 27" version="1.1" xmlns="http://www.w3.org/2000/svg" xmlns:xlink="http://www.w3.org/1999/xlink">
    <!-- Generator: Sketch 53.1 (72631) - https://sketchapp.com -->
    <title>icons8-refresh</title>
    <desc>Created with Sketch.</desc>
    <g id="Page-1" stroke="none" stroke-width="1" fill="none" fill-rule="evenodd">
        <g id="buy-car" transform="translate(-610.000000, -1797.000000)" fill="#000000" fill-rule="nonzero">
            <g id="show-more-btn" transform="translate(589.000000, 1778.000000)">
                <g id="icons8-refresh" transform="translate(21.000000, 19.000000)">
                    <path d="M11.9999992,0 C6.4845507,0 1.87921391,3.55517552 0,8.57812514 L1.98876403,9.421875 C3.560393,5.2207034 7.37359605,2.24999995 11.9999992,2.24999995 C15.4971905,2.24999995 18.6151686,4.0385746 20.561797,6.74999998 L16.3146057,6.74999998 L16.3146057,8.99999979 L23.8651676,8.99999979 L23.8651676,1.12499997 L21.707865,1.12499997 L21.707865,4.60546884 C19.3441002,1.77978483 15.8511236,0 11.9999992,0 Z M22.0112356,17.578125 C20.4396057,21.7792969 16.6264044,24.7500002 11.9999992,24.7500002 C8.46488679,24.7500002 5.35955025,22.9350589 3.40449443,20.25 L7.68539262,20.25 L7.68539262,18 L0.134831458,18 L0.134831458,25.8749998 L2.29213475,25.8749998 L2.29213475,22.3945314 C4.65168516,25.1850587 8.11095442,27 11.9999992,27 C17.5154484,27 22.1207861,23.4448248 23.9999991,18.421875 L22.0112356,17.578125 Z" id="Shape"></path>
                </g>
            </g>
        </g>
    </g>
</svg>